<?xml version="1.0" standalone="no"?>
<!DOCTYPE svg PUBLIC "-//W3C//DTD SVG 20010904//EN"
 "http://www.w3.org/TR/2001/REC-SVG-20010904/DTD/svg10.dtd">
<svg version="1.0" xmlns="http://www.w3.org/2000/svg"
 width="1024.000000pt" height="1024.000000pt" viewBox="0 0 1024.000000 1024.000000"
 preserveAspectRatio="xMidYMid meet">

<g transform="translate(0.000000,1024.000000) scale(0.100000,-0.100000)"
fill="#000000" stroke="none">
<path d="M4910 8441 c-131 -26 -234 -136 -254 -272 l-7 -47 -237 -4 c-220 -4
-241 -6 -289 -27 -64 -28 -127 -94 -144 -150 -8 -28 -19 -43 -33 -46 -12 -3
-152 -6 -311 -7 l-290 -3 -67 -33 c-87 -43 -165 -126 -204 -218 l-29 -69 -3
-941 c-2 -919 -3 -942 -22 -947 -26 -7 -30 0 -30 44 0 20 -4 39 -9 41 -6 2
-11 43 -12 93 -1 49 -6 100 -10 115 -8 22 -8 21 -4 -8 3 -20 1 -31 -5 -27 -6
3 -10 21 -10 38 0 25 -3 29 -11 17 -8 -11 -12 -12 -16 -2 -2 6 -13 12 -24 12
-18 0 -18 -1 1 -20 11 -11 20 -28 19 -37 0 -12 -4 -10 -10 8 -6 15 -29 36 -57
51 -61 33 -64 50 -13 82 22 14 45 35 52 47 14 27 13 281 -3 329 -6 19 -20 46
-32 59 -43 48 -66 51 -363 51 -313 0 -334 -4 -383 -77 -22 -32 -25 -49 -29
-149 l-3 -113 -34 -23 c-19 -13 -34 -26 -34 -29 0 -3 -15 -22 -34 -42 -19 -20
-40 -50 -47 -66 -7 -16 -16 -28 -20 -25 -16 9 -24 -145 -24 -431 1 -256 4
-321 23 -445 12 -80 29 -170 37 -200 8 -30 20 -76 26 -102 6 -27 15 -48 21
-48 6 0 8 -7 5 -15 -4 -8 -1 -17 5 -21 7 -5 8 -2 3 7 -8 12 -6 12 8 0 9 -7 32
-17 50 -22 27 -7 24 -8 -18 -4 -27 2 -42 1 -32 -2 14 -4 8 -11 -30 -35 -61
-38 -87 -70 -113 -136 -19 -49 -20 -75 -20 -365 0 -184 4 -327 10 -349 16 -57
69 -120 125 -148 49 -24 56 -25 302 -28 l252 -3 21 -27 c73 -93 254 -281 428
-443 82 -77 92 -90 92 -121 0 -50 62 -168 118 -223 25 -25 76 -60 112 -78 l65
-32 1453 -3 1453 -2 42 -40 c57 -55 135 -84 210 -76 65 7 140 41 179 83 34 36
129 176 156 230 15 29 47 59 109 105 204 146 385 314 608 561 l97 107 98 0
c151 0 241 44 296 143 l29 52 5 316 c3 210 9 321 16 330 17 21 80 218 114 356
30 121 37 167 20 128 -6 -14 -8 -8 -6 23 3 35 0 42 -15 42 -10 0 -19 9 -22 23
l-4 22 -2 -22 c-1 -16 -7 -23 -21 -23 -20 0 -26 26 -21 82 2 12 -10 19 -41 26
-43 9 -71 6 -64 -7 3 -4 -10 -8 -27 -9 -18 -1 -41 -5 -52 -7 -17 -4 -16 -3 3
6 26 14 31 35 5 23 -37 -17 -223 7 -223 29 0 6 -28 7 -67 4 -53 -5 -62 -4 -43
4 15 7 50 8 90 4 96 -11 140 -9 156 8 6 6 -56 9 -208 12 -65 0 -53 15 13 16
55 0 60 2 39 11 l-25 11 35 8 c19 5 46 10 60 11 31 3 106 75 153 148 19 30 49
69 67 85 17 17 41 48 53 70 22 40 22 47 24 603 1 314 -2 560 -7 557 -5 -3 -12
5 -16 17 -12 38 -96 119 -149 144 -50 24 -53 24 -401 24 l-352 0 -53 -28 c-33
-17 -65 -44 -83 -70 -29 -40 -29 -44 -18 -87 7 -25 12 -61 12 -80 0 -18 5 -37
10 -40 6 -4 10 6 10 22 0 51 45 129 91 160 l43 28 342 0 342 0 44 -30 c26 -19
52 -48 67 -78 l23 -47 2 -497 1 -498 -23 -44 c-27 -51 -61 -81 -111 -98 -50
-16 -595 -17 -659 -1 -60 15 -136 88 -151 146 -6 22 -11 100 -12 174 0 168
-14 198 -22 46 -2 -62 -10 -124 -16 -138 -10 -23 -10 -22 -6 10 14 110 16 230
4 251 -7 13 -13 41 -14 62 -1 21 -5 40 -8 44 -10 9 -35 -16 -41 -40 -2 -12 -2
14 1 58 3 44 10 83 15 86 6 4 7 13 3 20 -11 17 -23 -14 -24 -63 -1 -21 -5 -38
-11 -38 -5 0 -11 -37 -13 -82 -1 -46 -4 255 -5 668 -2 714 -3 754 -21 807 -44
128 -132 210 -266 246 -25 7 -154 11 -336 11 l-296 0 -6 28 c-10 50 -69 125
-124 158 -67 40 -101 44 -349 44 l-204 0 0 39 c0 49 -23 115 -57 164 -67 97
-213 145 -353 118z m185 -108 c86 -43 118 -100 125 -218 l5 -90 280 -5 c187
-3 287 -9 300 -17 32 -18 83 -76 94 -106 6 -16 11 -106 11 -208 0 -203 -8
-236 -62 -269 -32 -20 -48 -20 -861 -20 -914 0 -865 -3 -906 63 -19 32 -21 49
-21 221 0 194 7 234 48 279 44 49 60 52 362 57 l285 5 6 95 c6 109 25 150 88
195 65 44 176 53 246 18z m-1152 -543 c9 0 17 -6 17 -14 0 -11 -52 -14 -287
-18 -288 -4 -288 -4 -339 -31 -29 -14 -66 -45 -84 -67 -67 -85 -64 -43 -73
-930 -4 -443 -8 -825 -9 -850 -1 -25 1 -170 4 -322 6 -239 5 -278 -8 -278 -12
0 -14 148 -12 1138 3 890 6 1145 16 1174 19 55 71 119 125 152 78 48 126 54
392 50 132 -3 248 -5 258 -4z m2715 -28 c24 -13 42 -26 39 -29 -3 -2 -14 0
-24 5 -10 6 -163 13 -340 17 -269 6 -323 10 -323 22 0 12 46 14 303 11 294 -3
303 -4 345 -26z m-2698 -223 c0 -67 21 -121 66 -165 77 -78 34 -75 975 -72
l834 3 52 29 c79 44 123 119 123 209 l0 38 233 -3 c227 -3 233 -4 268 -27 20
-14 47 -41 60 -60 l24 -35 5 -820 c3 -452 8 -826 12 -832 9 -13 96 -532 138
-824 17 -118 33 -267 35 -330 l5 -115 -16 70 c-90 413 -116 532 -129 605 -23
118 -83 384 -95 415 -9 24 -14 26 -56 23 l-47 -3 -23 -77 c-22 -75 -61 -241
-170 -723 l-54 -240 0 -642 0 -643 -1330 0 c-1178 0 -1335 2 -1368 15 -47 20
-78 50 -105 100 l-22 40 -3 1950 c-2 1338 1 1966 8 1999 13 63 51 113 104 137
36 16 68 19 259 19 l217 0 0 -41z m-1193 -1081 c22 -20 23 -28 23 -161 l0
-140 -37 6 c-39 7 -60 27 -40 39 8 5 5 8 -8 9 -17 1 -17 2 -2 6 9 2 15 9 12
14 -4 5 -3 15 2 22 9 15 12 27 20 95 l6 52 -32 0 -31 0 0 -110 c0 -77 3 -110
12 -110 6 0 9 -2 6 -5 -8 -9 -113 -14 -125 -7 -8 5 -13 45 -14 120 l-1 112
-32 0 -31 0 5 -112 c3 -62 4 -116 2 -120 -5 -12 -316 3 -325 16 -4 6 -6 66 -5
134 4 173 -17 161 312 162 253 0 260 -1 283 -22z m-630 -420 c-3 -8 -6 -5 -6
6 -1 11 2 17 5 13 3 -3 4 -12 1 -19z m792 -130 c0 -18 -3 -27 -6 -20 -2 6 -9
10 -14 6 -13 -8 -11 15 4 31 17 20 17 19 16 -17z m-119 -368 l0 -380 -47 -2
c-193 -6 -290 -6 -445 -1 l-178 5 0 372 c0 205 3 376 7 379 3 4 154 7 335 7
l328 0 0 -380z m4196 344 c-4 -14 -9 -24 -12 -21 -3 2 -2 17 2 31 3 15 9 25
11 22 3 -3 2 -17 -1 -32z m-4069 -236 c-3 -7 -5 -2 -5 12 0 14 2 19 5 13 2 -7
2 -19 0 -25z m103 -88 c0 -33 -3 -40 -20 -40 -17 0 -20 7 -20 40 0 33 3 40 20
40 17 0 20 -7 20 -40z m3914 -128 c6 -7 19 -23 30 -34 15 -17 16 -22 5 -29 -9
-6 -4 -8 15 -6 16 1 31 -4 33 -10 3 -7 -2 -13 -11 -13 -9 0 -16 -6 -17 -12 0
-10 -2 -10 -6 0 -9 23 -33 12 -40 -18 -9 -48 -18 -43 -16 8 2 47 2 47 -6 9
-14 -68 -21 -51 -21 54 1 83 3 100 12 84 6 -11 16 -26 22 -33z m-430 -85 c22
-95 21 -111 -19 -172 -27 -43 -40 -55 -61 -55 -32 0 -28 14 27 116 22 39 39
74 39 77 0 4 -9 7 -21 7 -17 0 -20 5 -16 23 3 12 9 39 13 61 8 48 17 35 38
-57z m1149 -14 c-7 -2 -21 -2 -30 0 -10 3 -4 5 12 5 17 0 24 -2 18 -5z m-213
-22 c0 -9 -170 -4 -179 5 -2 2 37 4 87 4 51 0 92 -4 92 -9z m15 -31 c4 -6 -5
-10 -20 -10 -15 0 -24 4 -20 10 3 6 12 10 20 10 8 0 17 -4 20 -10z m-407 -14
c-13 -14 -28 -12 -28 5 0 5 9 9 20 9 17 0 19 -2 8 -14z m209 8 c-3 -3 -12 -4
-19 -1 -8 3 -5 6 6 6 11 1 17 -2 13 -5z m323 -9 c0 -8 -5 -15 -11 -15 -5 0 -8
4 -4 9 3 6 -12 12 -32 14 l-38 4 43 1 c31 2 42 -2 42 -13z m-260 -13 c3 -3
-33 -2 -80 1 -48 3 -74 1 -60 -3 15 -5 18 -8 8 -9 -25 -1 -49 10 -42 20 5 9
164 1 174 -9z m83 1 c-13 -2 -33 -2 -45 0 -13 2 -3 4 22 4 25 0 35 -2 23 -4z
m-270 -12 c17 -6 16 -8 -7 -19 -26 -11 -43 -2 -31 18 7 11 12 12 38 1z m-594
-108 c1 -18 -4 -23 -24 -23 -36 0 -41 23 -14 67 l24 38 6 -30 c4 -16 7 -40 8
-52z m519 45 c-22 -22 -36 -24 -18 -3 9 11 9 15 1 15 -6 0 -14 -6 -17 -14 -7
-17 -34 -10 -34 9 0 9 14 13 43 12 42 0 43 -1 25 -19z m829 -47 c24 -14 55
-43 70 -65 l28 -41 0 -525 c0 -513 0 -526 -21 -565 -13 -25 -39 -51 -69 -70
l-48 -30 -321 0 c-306 0 -323 1 -361 21 -25 13 -51 39 -70 69 l-30 48 0 516 0
516 23 47 c27 54 75 89 137 99 22 4 171 6 330 5 287 -1 290 -1 332 -25z m164
-4 c-10 -9 -11 -8 -5 6 3 10 9 15 12 12 3 -3 0 -11 -7 -18z m-5164 -19 c-3 -8
-6 -5 -6 6 -1 11 2 17 5 13 3 -3 4 -12 1 -19z m5190 -10 c-3 -8 -6 -5 -6 6 -1
11 2 17 5 13 3 -3 4 -12 1 -19z m33 -18 c0 -13 -1 -13 -10 0 -5 8 -10 22 -10
30 0 13 1 13 10 0 5 -8 10 -22 10 -30z m23 20 c3 -11 1 -20 -4 -20 -5 0 -9 9
-9 20 0 11 2 20 4 20 2 0 6 -9 9 -20z m-1549 -177 c10 -54 20 -104 22 -112 4
-12 -17 -13 -127 -8 -72 3 -133 8 -136 11 -3 2 -2 14 2 26 6 19 13 21 51 18
24 -2 44 0 44 4 0 4 12 5 28 2 15 -3 45 -1 67 4 34 9 23 10 -67 11 -60 1 -108
4 -108 8 0 3 5 35 11 70 l11 63 92 0 93 0 17 -97z m1523 55 c-3 -8 -6 -5 -6 6
-1 11 2 17 5 13 3 -3 4 -12 1 -19z m-5412 -208 c27 -7 27 -8 5 -8 -14 0 -38 4
-55 8 -27 7 -27 8 -5 8 14 0 39 -4 55 -8z m3943 -137 c13 -90 26 -977 16
-1040 -16 -101 -24 -24 -26 255 -2 192 -7 296 -13 295 -6 -2 -10 -114 -10
-310 l0 -308 23 -3 22 -3 0 -251 0 -251 -110 5 c-60 2 -113 8 -117 11 -3 4 3
21 15 37 26 34 27 46 7 54 -11 4 -13 14 -9 38 5 27 3 30 -6 18 -10 -13 -11
-12 -6 3 3 10 6 36 6 58 0 28 4 39 15 39 11 0 15 11 15 40 0 22 -4 40 -10 40
-5 0 -10 18 -10 40 0 22 4 40 10 40 7 0 10 156 9 450 -1 333 -4 450 -12 450
-8 0 -7 4 2 9 7 5 10 14 7 20 -21 33 -33 197 -18 240 9 25 8 31 -4 31 -7 0
-14 -6 -14 -12 0 -9 -4 -8 -10 2 -7 12 -3 16 23 21 31 6 30 6 -10 8 -23 0 -48
8 -57 16 -19 19 -26 19 -42 -2 -12 -16 -12 -16 -7 5 6 25 47 31 56 8 3 -8 13
-13 21 -12 22 3 32 16 13 16 -9 0 -19 5 -22 10 -4 6 38 10 118 10 l125 0 10
-77z m-3975 30 c56 -6 98 -37 127 -94 19 -35 20 -60 20 -336 0 -267 -2 -302
-19 -338 -22 -50 -71 -92 -114 -100 -18 -3 -174 -5 -348 -3 l-316 3 -35 27
c-66 50 -70 74 -66 424 3 279 5 312 21 339 39 63 58 69 222 75 209 8 451 9
508 3z m4114 -170 c-3 -10 -5 -4 -5 12 0 17 2 24 5 18 2 -7 2 -21 0 -30z
m-367 -3 c0 -5 -5 -10 -11 -10 -5 0 -7 5 -4 10 3 6 8 10 11 10 2 0 4 -4 4 -10z
m-113 -227 c-1 -43 -3 -10 -3 72 0 83 2 118 3 78 2 -40 2 -107 0 -150z m120
165 c-3 -8 -6 -5 -6 6 -1 11 2 17 5 13 3 -3 4 -12 1 -19z m-30 -80 c-3 -8 -6
-5 -6 6 -1 11 2 17 5 13 3 -3 4 -12 1 -19z m-90 -245 c-2 -16 -4 -5 -4 22 0
28 2 40 4 28 2 -13 2 -35 0 -50z m0 -165 c-2 -13 -4 -3 -4 22 0 25 2 35 4 23
2 -13 2 -33 0 -45z m0 -380 c-2 -24 -4 -5 -4 42 0 47 2 66 4 43 2 -24 2 -62 0
-85z m-3160 -345 c-2 -16 -4 -5 -4 22 0 28 2 40 4 28 2 -13 2 -35 0 -50z
m3160 -120 c-2 -37 -3 -9 -3 62 0 72 1 102 3 68 2 -34 2 -93 0 -130z m-3150
40 c-3 -10 -5 -2 -5 17 0 19 2 27 5 18 2 -10 2 -26 0 -35z m1910 3 c104 -113
-59 -265 -168 -157 -80 80 -21 208 91 197 35 -3 51 -11 77 -40z m-1863 -89 c5
4 6 3 2 -4 -4 -7 1 -25 11 -40 10 -15 12 -24 5 -19 -15 9 -62 100 -61 118 0 7
8 -4 17 -25 10 -22 21 -35 26 -30z m3450 -154 c-4 -85 -133 -161 -207 -122
-30 16 -38 30 -32 55 3 12 0 21 -8 21 -6 0 -20 4 -31 8 -16 7 -17 6 -6 -15 9
-17 9 -21 0 -15 -14 9 -40 67 -40 90 0 13 21 15 163 13 l162 -3 -1 -32z"/>
<path d="M4430 7640 c30 -4 45 -7 33 -8 -13 -1 -23 -6 -23 -12 0 -5 -7 -10
-16 -10 -8 0 -22 -6 -29 -14 -18 -18 -59 -16 515 -22 278 -2 479 -1 472 4 -7
5 -69 8 -138 7 -79 -2 -124 1 -124 7 0 7 -53 9 -157 5 -87 -3 -140 -2 -118 2
l40 8 -42 2 c-24 0 -43 5 -43 11 0 5 -37 11 -82 12 -46 2 126 4 381 5 255 1
466 5 469 8 3 3 -264 4 -594 3 -329 -1 -574 -4 -544 -8z m283 -27 c-7 -2 -21
-2 -30 0 -10 3 -4 5 12 5 17 0 24 -2 18 -5z m-206 -19 c-3 -3 -12 -4 -19 -1
-8 3 -5 6 6 6 11 1 17 -2 13 -5z"/>
<path d="M5610 7629 c0 -5 5 -7 10 -4 6 3 10 8 10 11 0 2 -4 4 -10 4 -5 0 -10
-5 -10 -11z"/>
<path d="M5078 7613 c23 -2 61 -2 85 0 23 2 4 4 -43 4 -47 0 -66 -2 -42 -4z"/>
<path d="M5378 7613 c12 -2 32 -2 45 0 12 2 2 4 -23 4 -25 0 -35 -2 -22 -4z"/>
<path d="M4920 6954 c-194 -34 -320 -208 -290 -400 6 -37 17 -78 24 -93 46
-86 124 -157 203 -185 47 -16 55 -41 51 -171 -1 -55 -1 -260 0 -456 l2 -356
70 16 70 17 1 467 1 468 62 28 c78 35 157 119 183 193 28 83 25 199 -8 269
-37 78 -90 134 -163 168 -60 29 -150 44 -206 35z m157 -101 c121 -56 189 -226
136 -344 -22 -46 -83 -121 -83 -100 0 7 -5 9 -10 6 -14 -9 -42 14 -33 27 3 7
-5 9 -24 6 -29 -4 -30 -3 -27 31 l2 36 -10 -33 c-11 -34 -11 -34 -70 -30 -32
2 -58 -1 -58 -6 0 -4 -7 -6 -15 -3 -8 4 -17 2 -20 -3 -3 -5 -16 2 -30 16 -13
13 -29 24 -35 24 -5 0 -10 13 -10 29 0 25 3 28 23 23 18 -5 19 -7 5 -10 -10
-2 -18 -8 -18 -13 0 -13 8 -11 41 8 26 16 31 16 39 3 9 -13 10 -13 11 0 1 8 5
2 9 -15 7 -28 8 -27 9 14 1 43 1 43 -26 36 -42 -11 -97 -12 -104 -2 -11 16 -2
-88 10 -113 10 -20 6 -19 -17 8 -78 88 -70 256 16 345 77 80 193 105 289 60z
m-207 -468 c19 -7 28 -14 20 -14 -8 0 -28 6 -45 14 -39 17 -21 18 25 0z m223
-6 c-32 -20 -53 -19 -53 4 0 9 3 8 8 -1 9 -13 42 -6 42 9 0 5 8 9 18 9 12 0 7
-7 -15 -21z"/>
<path d="M5078 6548 c9 -9 15 -9 24 0 9 9 7 12 -12 12 -19 0 -21 -3 -12 -12z"/>
<path d="M4740 6534 c1 -5 7 -20 15 -34 13 -24 14 -24 15 -4 0 12 -7 27 -15
34 -8 7 -15 9 -15 4z"/>
<path d="M5121 6504 c0 -6 4 -25 10 -43 9 -25 14 -29 25 -20 8 6 14 17 13 23
0 7 -2 6 -6 -1 -2 -7 -9 -13 -15 -13 -6 0 -8 7 -4 15 3 8 1 15 -4 15 -5 0 -11
8 -13 18 -3 9 -5 12 -6 6z"/>
<path d="M4840 6470 c0 -5 4 -10 9 -10 6 0 13 5 16 10 3 6 -1 10 -9 10 -9 0
-16 -4 -16 -10z"/>
<path d="M3660 6890 c0 -16 4 -30 8 -30 4 0 8 14 7 30 0 17 -3 30 -7 30 -5 0
-8 -13 -8 -30z"/>
<path d="M5778 6503 c12 -2 32 -2 45 0 12 2 2 4 -23 4 -25 0 -35 -2 -22 -4z"/>
<path d="M6003 6503 c15 -2 39 -2 55 0 15 2 2 4 -28 4 -30 0 -43 -2 -27 -4z"/>
<path d="M4315 6351 c-38 -16 -117 -50 -175 -75 -224 -100 -443 -156 -609
-156 -34 0 -61 -4 -61 -9 0 -16 89 -88 135 -110 104 -49 314 -9 574 110 95 43
81 25 -34 -43 -95 -57 -190 -96 -299 -123 l-91 -22 60 -30 c33 -16 81 -36 108
-43 61 -16 165 -9 240 18 61 22 178 96 240 151 61 55 42 20 -25 -47 -75 -73
-96 -90 -167 -130 l-55 -31 30 -12 c43 -17 185 -23 227 -10 19 7 56 30 80 51
25 22 48 40 52 40 3 0 -8 -20 -25 -45 l-31 -45 176 0 175 0 0 94 0 94 -43 6
c-95 14 -149 77 -172 199 -22 116 -45 151 -118 182 -54 22 -113 18 -192 -14z"/>
<path d="M5445 6362 c-73 -35 -95 -70 -114 -187 -16 -95 -45 -144 -101 -172
-24 -13 -59 -23 -77 -23 l-33 0 0 -95 0 -95 170 0 c94 0 170 4 170 9 0 4 -9
20 -20 34 -11 14 -20 29 -20 34 0 4 5 0 11 -9 21 -37 97 -71 170 -76 65 -4
189 13 189 27 0 3 -26 22 -57 41 -62 36 -162 126 -196 175 -18 26 -15 25 24
-10 62 -57 128 -101 207 -138 61 -29 75 -32 167 -32 105 0 189 22 244 64 l25
19 -58 12 c-128 26 -311 106 -381 165 l-30 26 51 -25 c84 -41 275 -103 357
-116 136 -22 223 -2 299 70 51 49 49 60 -13 60 -171 0 -403 62 -661 177 -196
87 -252 98 -323 65z"/>
<path d="M4594 5692 c-226 -78 -235 -351 -15 -475 l43 -25 51 23 c27 13 76 32
108 42 32 10 59 20 59 23 0 3 -22 13 -50 23 -68 24 -149 101 -156 148 -5 28
-1 41 19 64 21 25 31 29 77 28 37 0 61 -7 81 -22 l29 -22 0 95 0 94 -50 11
c-72 16 -137 13 -196 -7z"/>
<path d="M5163 5697 l-43 -10 0 -93 0 -94 41 22 c62 32 121 30 158 -6 37 -36
40 -70 8 -117 -36 -54 -126 -91 -337 -139 -287 -65 -393 -114 -438 -202 -60
-116 -24 -233 96 -309 l42 -27 68 34 c37 19 75 34 84 34 29 0 29 17 -1 30 -16
6 -47 29 -70 51 -72 69 -53 125 57 168 85 34 82 38 82 -103 l0 -124 68 23 67
22 3 112 c3 110 3 111 27 111 36 0 124 -36 151 -61 33 -30 33 -87 0 -122 -38
-41 -92 -64 -306 -131 -249 -78 -335 -168 -293 -309 16 -55 98 -147 130 -147
10 0 34 11 53 23 19 13 49 29 65 35 17 6 62 24 100 40 l70 29 3 91 c2 53 7 92
13 92 21 0 77 -29 98 -51 57 -62 1 -137 -146 -194 -202 -79 -257 -115 -288
-187 -29 -71 -11 -143 54 -217 l30 -34 33 28 c18 16 70 46 116 67 l82 38 0 72
0 72 35 -34 c65 -63 40 -116 -80 -170 -87 -39 -152 -85 -170 -120 -8 -16 -15
-51 -15 -78 0 -42 7 -59 40 -108 22 -33 60 -81 85 -109 l46 -50 50 55 c116
127 148 205 115 283 l-15 37 44 44 c53 53 85 113 85 159 0 44 -26 119 -50 145
-11 12 -20 23 -20 25 0 3 25 24 56 47 124 96 144 213 58 326 -31 40 -34 48
-21 56 47 26 106 79 134 121 64 96 49 213 -38 292 -22 19 -39 37 -39 39 0 2
21 16 46 31 118 69 168 143 168 245 0 80 -24 131 -90 189 -74 65 -185 86 -301
58z m-253 -1207 c0 -55 -2 -100 -5 -100 -14 0 -62 30 -78 48 -20 22 -32 81
-20 98 11 16 75 54 91 54 9 0 12 -27 12 -100z m3 -392 c6 -69 1 -80 -27 -52
-28 27 -30 61 -6 94 12 17 23 30 25 28 1 -2 5 -33 8 -70z m115 -267 c8 -23 6
-36 -15 -70 -13 -22 -28 -41 -32 -41 -9 0 -41 65 -41 85 0 7 12 27 26 45 29
34 45 30 62 -19z"/>
<path d="M3760 4880 c0 -5 14 -10 32 -10 36 0 35 4 -4 14 -17 4 -28 2 -28 -4z"/>
<path d="M3663 4865 c-3 -9 -3 -18 -1 -21 3 -3 8 4 11 16 6 23 -1 27 -10 5z"/>
<path d="M3723 4813 c9 -2 25 -2 35 0 9 3 1 5 -18 5 -19 0 -27 -2 -17 -5z"/>
<path d="M3898 4573 c34 -2 90 -2 125 0 34 2 6 3 -63 3 -69 0 -97 -1 -62 -3z"/>
<path d="M3661 4544 c0 -11 3 -14 6 -6 3 7 2 16 -1 19 -3 4 -6 -2 -5 -13z"/>
<path d="M3660 4235 c0 -8 4 -15 10 -15 5 0 7 7 4 15 -4 8 -8 15 -10 15 -2 0
-4 -7 -4 -15z"/>
<path d="M6061 4233 c0 -12 -4 -30 -7 -40 -5 -14 -4 -15 5 -7 7 6 11 24 8 40
-3 21 -4 23 -6 7z"/>
<path d="M3778 4213 c12 -2 32 -2 45 0 12 2 2 4 -23 4 -25 0 -35 -2 -22 -4z"/>
<path d="M3740 3980 c25 -8 87 -13 79 -6 -2 2 -26 6 -54 9 -34 4 -42 3 -25 -3z"/>
<path d="M3900 3980 c-17 -6 -9 -7 25 -3 28 3 52 7 54 9 8 7 -54 2 -79 -6z"/>
<path d="M4008 3983 c6 -2 18 -2 25 0 6 3 1 5 -13 5 -14 0 -19 -2 -12 -5z"/>
<path d="M4188 3983 c6 -2 18 -2 25 0 6 3 1 5 -13 5 -14 0 -19 -2 -12 -5z"/>
<path d="M3660 3965 c0 -8 2 -15 4 -15 2 0 6 7 10 15 3 8 1 15 -4 15 -6 0 -10
-7 -10 -15z"/>
<path d="M6055 3905 c0 -24 3 -41 8 -38 4 2 7 19 7 38 0 19 -3 36 -7 38 -5 3
-8 -14 -8 -38z"/>
<path d="M6053 3573 c-1 -24 2 -32 8 -22 11 18 12 59 1 59 -4 0 -9 -16 -9 -37z"/>
<path d="M2303 6319 c3 -45 8 -83 11 -86 10 -10 26 9 26 30 0 18 2 19 10 7 7
-10 10 7 10 58 l0 72 -31 0 -31 0 5 -81z"/>
<path d="M2405 5490 c3 -5 8 -10 11 -10 2 0 4 5 4 10 0 6 -5 10 -11 10 -5 0
-7 -4 -4 -10z"/>
<path d="M2300 5416 c0 -2 8 -10 18 -17 15 -13 16 -12 3 4 -13 16 -21 21 -21
13z"/>
<path d="M7120 5229 c0 -5 5 -7 10 -4 6 3 10 8 10 11 0 2 -4 4 -10 4 -5 0 -10
-5 -10 -11z"/>
<path d="M7714 5004 c-66 -23 -97 -89 -74 -158 27 -83 154 -101 221 -30 19 21
24 36 24 80 0 45 -4 58 -26 80 -34 34 -95 45 -145 28z m103 -90 c8 -23 -22
-44 -63 -44 -35 0 -59 22 -50 45 8 22 104 21 113 -1z"/>
<path d="M7234 5000 c-61 -25 -86 -129 -44 -183 43 -54 140 -59 199 -9 60 50
50 151 -19 187 -31 16 -102 19 -136 5z m110 -76 c9 -3 16 -14 16 -24 0 -32
-80 -42 -116 -15 -19 15 -19 15 0 30 20 15 72 20 100 9z"/>
<path d="M7232 4606 c-53 -29 -78 -111 -51 -169 32 -71 161 -77 222 -9 43 48
26 140 -32 175 -34 20 -106 22 -139 3z m118 -76 c28 -17 -2 -45 -52 -48 -52
-3 -80 17 -58 43 14 17 86 20 110 5z"/>
<path d="M7690 4598 c-58 -40 -75 -99 -45 -158 22 -43 53 -60 108 -60 62 0
100 20 122 66 38 80 -12 163 -102 171 -39 4 -55 0 -83 -19z m126 -73 c12 -31
-40 -60 -86 -48 -24 6 -34 32 -19 49 16 20 98 19 105 -1z"/>
<path d="M7254 4224 c-40 -9 -76 -59 -82 -112 -4 -44 -1 -53 25 -82 26 -29 37
-34 89 -38 53 -4 63 -1 91 22 62 52 68 129 14 180 -30 28 -87 41 -137 30z
m104 -98 c5 -25 -14 -36 -64 -36 -53 0 -79 25 -49 47 30 21 109 14 113 -11z"/>
<path d="M7693 4210 c-35 -21 -63 -66 -63 -100 0 -36 31 -90 61 -105 37 -20
119 -19 147 1 49 34 66 109 36 165 -28 56 -121 76 -181 39z m127 -77 c-1 -47
-60 -67 -100 -35 -39 31 -21 52 45 52 46 0 55 -3 55 -17z"/>
<path d="M2952 7420 c0 -14 2 -19 5 -12 2 6 2 18 0 25 -3 6 -5 1 -5 -13z"/>
<path d="M2941 7374 c0 -11 3 -14 6 -6 3 7 2 16 -1 19 -3 4 -6 -2 -5 -13z"/>
<path d="M2932 6820 c0 -14 2 -19 5 -12 2 6 2 18 0 25 -3 6 -5 1 -5 -13z"/>
<path d="M7204 6821 c-139 -63 -129 -248 17 -296 58 -20 111 -9 160 32 88 75
73 208 -31 261 -54 27 -92 28 -146 3z m118 -98 c27 -24 23 -68 -8 -92 -34 -27
-52 -26 -81 1 -44 41 -19 108 40 108 17 0 39 -7 49 -17z"/>
<path d="M7685 6833 c-31 -8 -83 -51 -100 -83 -20 -39 -19 -107 3 -150 55
-109 230 -108 292 2 69 123 -51 266 -195 231z m90 -109 c47 -31 19 -114 -37
-114 -28 0 -68 38 -68 65 0 56 55 82 105 49z"/>
<path d="M2953 6680 c0 -25 2 -35 4 -22 2 12 2 32 0 45 -2 12 -4 2 -4 -23z"/>
<path d="M2921 6624 c0 -11 3 -14 6 -6 3 7 2 16 -1 19 -3 4 -6 -2 -5 -13z"/>
<path d="M1971 6464 c0 -11 3 -14 6 -6 3 7 2 16 -1 19 -3 4 -6 -2 -5 -13z"/>
<path d="M2912 6450 c0 -19 2 -27 5 -17 2 9 2 25 0 35 -3 9 -5 1 -5 -18z"/>
<path d="M2932 6460 c0 -14 2 -19 5 -12 2 6 2 18 0 25 -3 6 -5 1 -5 -13z"/>
<path d="M6930 6440 c0 -22 5 -40 10 -40 6 0 10 18 10 40 0 22 -4 40 -10 40
-5 0 -10 -18 -10 -40z"/>
<path d="M7225 6438 c-137 -48 -168 -209 -55 -284 86 -57 195 -35 245 50 14
24 25 57 25 75 0 72 -54 140 -128 161 -44 12 -48 12 -87 -2z m92 -110 c41 -38
24 -95 -34 -112 -30 -10 -75 31 -75 69 0 32 32 65 65 65 11 0 31 -10 44 -22z"/>
<path d="M7677 6436 c-21 -8 -47 -22 -57 -31 -48 -44 -64 -137 -34 -201 52
-110 244 -104 297 9 62 131 -70 273 -206 223z m97 -107 c32 -25 35 -68 6 -94
-62 -56 -149 36 -90 95 26 26 51 25 84 -1z"/>
<path d="M7041 6313 c-1 -42 0 -75 3 -72 7 6 10 138 4 144 -3 3 -6 -29 -7 -72z"/>
<path d="M2907 6243 c-4 -49 -2 -82 5 -90 8 -10 6 -18 -6 -31 -18 -21 -20 -32
-6 -32 6 0 15 12 21 28 5 15 17 41 26 58 9 17 14 37 11 45 -3 8 -8 0 -12 -18
-4 -17 -14 -34 -22 -37 -11 -4 -12 -2 -4 14 12 23 14 140 1 140 -4 0 -11 -35
-14 -77z"/>
<path d="M7227 6035 c-92 -23 -142 -105 -118 -193 28 -106 132 -151 237 -103
84 38 121 149 72 220 -48 71 -112 96 -191 76z m93 -107 c38 -41 20 -95 -37
-112 -30 -10 -75 31 -75 69 0 57 72 85 112 43z"/>
<path d="M7693 6040 c-77 -18 -123 -76 -123 -153 0 -104 73 -173 175 -165 172
14 214 227 61 303 -53 26 -62 28 -113 15z m84 -112 c44 -42 17 -110 -44 -110
-31 0 -63 33 -63 66 0 29 35 66 62 66 12 0 32 -10 45 -22z"/>
<path d="M2850 6020 c0 -5 7 -10 16 -10 8 0 12 5 9 10 -3 6 -10 10 -16 10 -5
0 -9 -4 -9 -10z"/>
<path d="M3013 5800 c0 -25 2 -35 4 -22 2 12 2 32 0 45 -2 12 -4 2 -4 -23z"/>
<path d="M8122 5700 c0 -14 2 -19 5 -12 2 6 2 18 0 25 -3 6 -5 1 -5 -13z"/>
<path d="M8313 5480 c0 -25 2 -35 4 -22 2 12 2 32 0 45 -2 12 -4 2 -4 -23z"/>
<path d="M8295 5398 c-2 -13 -6 -47 -8 -76 -2 -29 -7 -55 -11 -59 -3 -3 -6
-16 -6 -29 0 -12 -4 -24 -9 -26 -5 -1 -12 -16 -15 -33 -5 -25 -5 -26 3 -8 5
12 16 25 24 30 9 4 18 28 20 53 17 147 19 170 14 170 -4 0 -9 -10 -12 -22z"/>
<path d="M7864 5375 c-10 -8 -14 -15 -7 -15 19 0 43 11 43 21 0 13 -14 11 -36
-6z"/>
<path d="M8272 5365 c0 -16 2 -22 5 -12 2 9 2 23 0 30 -3 6 -5 -1 -5 -18z"/>
<path d="M8160 5370 c0 -5 18 -10 40 -10 24 0 40 -5 40 -12 0 -6 3 -8 7 -4 5
4 -1 14 -11 22 -23 16 -76 19 -76 4z"/>
<path d="M8247 5300 c-3 -11 -1 -20 4 -20 5 0 9 9 9 20 0 11 -2 20 -4 20 -2 0
-6 -9 -9 -20z"/>
<path d="M8080 5300 c0 -5 -18 -10 -40 -10 -22 0 -40 -4 -40 -9 0 -5 -13 -12
-30 -16 -16 -4 -33 -11 -37 -17 -4 -8 0 -9 13 -4 10 4 34 10 51 13 18 3 30 9
27 14 -3 5 21 9 53 9 53 1 56 2 39 15 -23 17 -36 19 -36 5z"/>
<path d="M8180 5280 c0 -5 6 -7 14 -4 11 4 16 -5 19 -38 l4 -43 1 48 c2 41 -1
47 -18 47 -11 0 -20 -4 -20 -10z"/>
<path d="M7910 5260 c-9 -6 -10 -10 -3 -10 6 0 15 5 18 10 8 12 4 12 -15 0z"/>
<path d="M7848 5253 c6 -2 18 -2 25 0 6 3 1 5 -13 5 -14 0 -19 -2 -12 -5z"/>
<path d="M8181 5214 c0 -11 3 -14 6 -6 3 7 2 16 -1 19 -3 4 -6 -2 -5 -13z"/>
<path d="M8263 5151 c-6 -21 -7 -44 -3 -51 4 -7 10 8 14 35 9 59 2 69 -11 16z"/>
<path d="M5247 2219 c-83 -9 -194 -67 -250 -129 -150 -167 -138 -406 28 -558
96 -88 193 -118 342 -109 112 8 226 39 259 72 23 23 24 29 24 179 0 164 -8
200 -44 210 -29 8 -236 8 -275 0 l-32 -7 3 -86 3 -86 68 -3 67 -3 0 -34 c0
-33 -1 -34 -55 -40 -78 -10 -137 1 -185 36 -74 54 -111 142 -90 214 38 128
172 184 303 125 l49 -22 46 24 c180 93 -7 248 -261 217z"/>
<path d="M1540 2207 c-14 -7 -29 -26 -35 -43 -6 -18 -10 -168 -10 -362 l0
-331 23 -23 c19 -19 32 -23 79 -21 94 3 97 10 103 219 l5 175 62 -78 c91 -116
99 -123 137 -123 31 0 42 10 116 100 46 55 86 100 89 100 3 0 7 -75 9 -168 2
-92 6 -175 9 -185 13 -48 124 -56 171 -14 22 20 22 20 22 364 0 209 -4 352
-10 363 -14 26 -70 42 -120 34 -40 -6 -48 -15 -156 -150 -63 -79 -119 -146
-123 -149 -5 -2 -54 54 -111 125 -56 72 -115 141 -132 155 -33 28 -87 33 -128
12z"/>
<path d="M4383 2210 c-30 -12 -42 -33 -113 -190 -34 -74 -68 -148 -75 -165
-88 -193 -145 -333 -145 -355 0 -15 9 -38 19 -51 16 -20 29 -24 74 -24 66 0
87 15 128 98 l29 57 130 0 129 0 37 -70 c41 -78 50 -83 134 -78 49 3 56 6 73
36 18 30 18 36 4 75 -22 64 -296 640 -311 655 -17 17 -84 25 -113 12z m72
-370 c37 -74 35 -80 -30 -80 -30 0 -55 4 -55 9 0 11 50 121 56 121 2 0 15 -22
29 -50z"/>
<path d="M6513 2213 c-52 -10 -53 -20 -53 -399 0 -333 1 -352 19 -368 29 -26
90 -30 131 -9 l35 18 5 179 5 178 157 -189 c130 -157 162 -191 189 -197 38 -7
102 8 119 29 9 11 14 107 17 357 5 337 5 343 -15 369 -40 49 -147 45 -170 -6
-8 -17 -12 -88 -12 -196 0 -100 -4 -168 -9 -165 -5 4 -77 93 -160 200 -91 117
-160 196 -174 200 -24 6 -48 6 -84 -1z"/>
<path d="M7395 2211 c-93 -6 -100 -8 -112 -30 -9 -18 -11 -116 -10 -367 2
-321 3 -343 21 -363 18 -19 29 -21 155 -21 192 0 286 26 385 103 54 43 110
134 132 213 15 58 16 76 6 136 -15 87 -41 137 -103 203 -76 80 -230 140 -344
133 -16 -1 -75 -4 -130 -7z m237 -217 c88 -28 147 -124 129 -207 -21 -90 -95
-142 -213 -150 l-67 -4 -3 189 c-2 104 -2 191 -1 192 7 7 114 -7 155 -20z"/>
<path d="M8323 2210 c-12 -5 -29 -20 -37 -33 -34 -51 -306 -654 -306 -677 0
-57 58 -91 130 -75 40 9 66 37 97 103 l25 53 130 -3 131 -3 35 -67 c38 -75 61
-88 140 -80 46 4 82 37 82 75 0 11 -33 92 -74 181 -41 88 -108 238 -150 331
-43 94 -83 176 -90 183 -17 17 -84 25 -113 12z m72 -376 c14 -31 24 -59 21
-61 -7 -8 -106 -13 -106 -6 0 16 45 123 52 123 4 0 19 -25 33 -56z"/>
<path d="M2480 2188 c-19 -21 -20 -33 -20 -361 0 -335 3 -369 34 -389 6 -4
111 -8 234 -8 l223 0 24 25 c21 20 25 34 25 79 0 47 -4 57 -26 75 -24 19 -40
21 -165 21 l-139 0 0 44 c0 52 13 60 77 50 24 -3 73 -3 108 1 76 8 97 28 99
96 1 33 -5 46 -27 65 -26 22 -36 24 -143 24 l-114 0 0 49 0 49 146 4 c139 3
147 4 165 27 24 29 26 116 3 149 -15 22 -19 22 -249 22 -228 0 -235 -1 -255
-22z"/>
<path d="M3158 2200 c-17 -10 -18 -39 -18 -368 0 -307 2 -361 16 -380 14 -21
22 -22 162 -22 101 0 167 5 207 15 132 35 241 121 293 233 22 48 27 71 27 147
0 85 -2 96 -38 168 -44 88 -88 130 -193 179 l-69 33 -185 3 c-119 1 -191 -1
-202 -8z m395 -226 c57 -40 90 -104 84 -166 -9 -104 -93 -171 -219 -174 l-67
-2 -3 190 -3 190 83 -4 c71 -4 88 -8 125 -34z"/>
<path d="M5814 2196 c-18 -14 -19 -31 -22 -363 -3 -342 -2 -350 18 -376 l21
-27 225 0 225 0 24 25 c20 19 25 34 25 75 0 41 -5 56 -25 75 -23 24 -29 25
-165 25 l-140 0 0 48 0 47 80 -4 c162 -7 203 14 202 102 -1 32 -7 47 -27 65
-24 20 -36 22 -141 22 l-114 0 0 49 0 49 145 4 c170 4 176 7 183 92 3 41 0 62
-12 81 l-16 25 -233 0 c-186 0 -237 -3 -253 -14z"/>
</g>
</svg>
